<svg xmlns="http://www.w3.org/2000/svg" xmlns:xlink="http://www.w3.org/1999/xlink" version="1.1" x="0px" y="0px" viewBox="0 0 100 125" style="enable-background:new 0 0 100 100;" xml:space="preserve"><g><path d="M70.1,63.5c-0.1-0.3-2.3-6.7-13.3-8.6c4.2-5.3,9.2-12.9,8.9-19.1c0-8.7-7.1-15.8-15.8-15.8s-15.8,7.1-15.8,15.8v0   c0.1,6.7,4.9,14.1,9,19.2c-11.2,2.2-13.1,9.3-13.2,9.6l0,15.4h40.2V63.8L70.1,63.5z M49.9,23c7,0,12.8,5.7,12.8,12.8   C62.9,40.6,58.9,48,51.9,56c-0.5,0.6-1.2,0.9-2,0.9c0,0,0,0,0,0c-0.8,0-1.5-0.3-2-0.9c-4-4.5-10.6-13.1-10.7-20.3   C37.1,28.7,42.8,23,49.9,23z M67.1,77H62v-9.1h-3V77H42.4v-9.1h-3V77h-6.5V65.2c0.3-1,2.6-6.2,12.4-7.5c0.1,0.1,0.2,0.2,0.3,0.3   c1.1,1.2,2.6,1.9,4.3,1.9c0,0,0,0,0,0c1.6,0,3.2-0.7,4.3-1.9c0.1-0.1,0.2-0.3,0.3-0.4c9.6,1.1,12.2,5.7,12.7,6.7V77z"/><path d="M49.2,43c0.2-3.1-0.6-5.7-2.3-7.5c-2.4-2.6-5.9-2.7-6.1-2.7l-1.4,0l-0.1,1.4c-0.3,3,0.4,5.4,2,7.2c2.4,2.8,6.2,3,6.3,3   l1.5,0.1L49.2,43z M43.6,39.4c-0.7-0.9-1.2-2-1.3-3.3c0.8,0.2,1.7,0.7,2.5,1.5c0.8,0.9,1.3,2,1.4,3.5   C45.4,40.8,44.4,40.2,43.6,39.4z"/><path d="M51.4,44.4l1.5-0.1c0.2,0,3.9-0.2,6.3-3c1.6-1.8,2.3-4.3,2-7.2l-0.1-1.4l-1.4,0c-0.1,0-3.6,0.1-6.1,2.7   c-1.7,1.8-2.4,4.3-2.3,7.5L51.4,44.4z M55.8,37.5c0.7-0.8,1.7-1.3,2.5-1.5c-0.1,1.3-0.5,2.5-1.3,3.3c-0.8,0.9-1.8,1.4-2.6,1.7   C54.5,39.6,55,38.4,55.8,37.5z"/><circle cx="49.9" cy="49.8" r="1.8"/></g><text x="0" y="115" fill="#000000" font-size="5px" font-weight="bold" font-family="'Helvetica Neue', Helvetica, Arial-Unicode, Arial, Sans-serif">Created by Visual Glow</text><text x="0" y="120" fill="#000000" font-size="5px" font-weight="bold" font-family="'Helvetica Neue', Helvetica, Arial-Unicode, Arial, Sans-serif">from the Noun Project</text></svg>