<?xml version="1.0" encoding="utf-8"?>
<!-- Generator: Adobe Illustrator 24.1.2, SVG Export Plug-In . SVG Version: 6.00 Build 0)  -->
<svg version="1.1" id="Layer_1" xmlns="http://www.w3.org/2000/svg" xmlns:xlink="http://www.w3.org/1999/xlink" x="0px" y="0px"
	 viewBox="0 0 1000 1000" style="enable-background:new 0 0 1000 1000;" xml:space="preserve">
<style type="text/css">
	.st0{fill:#333333;}
</style>
<path id="_x36_L17pX.tif" class="st0" d="M249.1,388.1c-2,1.5-1.4,3.5-1.4,5.1c-0.1,18.3-0.2,36.7,0.1,55c0.1,8.7,3.5,17,5,25.6
	c1.5,9.2,3.1,18.5,6,27.3c3.3,10.1,6.5,20.3,11.1,29.9c4.4,9.2,9.6,18,14.8,26.7c2.6,4.4,1.3,9-3.4,10.8c-3.9,1.5-7.8,3.1-12,3.8
	c-3.2,0.6-4.9-0.6-5.6-3.6c-0.4-1.7-0.7-3.6-0.7-5.3c0.1-5.9-0.4-11.7-0.8-17.5c-0.3-4-2.2-5.8-6.1-6.5c-8.4-1.4-16.8-0.7-25.1,0.5
	c-3.4,0.5-6.9,0.5-10.3,0.5c-3.8,0-5.5-1.8-5.5-5.5c0.1-6.4,2.3-12.4,3.6-18.5c1.3-6,3.4-11.8,5-17.8c1.7-6.6,0.7-8.2-5.6-10.8
	c-9-3.7-18.6-6-27.7-9.4c-5.5-2-10.8-4.6-15.9-7.2c-3-1.5-3-4.8-0.4-8.1c1.9-2.5,4-4.9,6.2-7.1c9.1-9.1,17.7-18.7,27.9-26.6
	c4.2-3.2,4.4-5.4,1.3-9.9c-13.6-19.1-32.8-28.9-55.2-33.3c-3.7-0.7-7.4-1.1-10.6-3.5c-2.2-1.6-2.5-2.9-0.2-4.9
	c5.3-4.7,11.8-7.6,17.3-12.1c10.9-8.9,23.3-15.9,34-25.1c1.5-1.3,3-2.6,4.7-3.5c4.6-2.2,5-5.9,3.2-9.8c-3-6.9-6.8-13.4-11.2-19.4
	c-6-8.2-12.8-15.8-19.8-23.2c-3-3.2-6-6.3-9.4-9c-2.1-1.7-4.1-3.6-5.7-5.7c-4.1-5.2-2.8-9.3,3.7-9.5c12.2-0.4,24.2-2.7,36.3-3.3
	c14.2-0.7,28.6-0.2,42.6-3.2c6.5-1.4,7.1-2,5.9-8.3c-3.8-19.3-8.5-38.4-18-55.9c-1.7-3.2-4.7-7-1.7-10.4c2.6-3,6.7-1,10.2-0.3
	c15.3,3.1,29.9,8.1,43.8,14.9c3.6,1.8,7,4.1,10.5,6c4.4,2.3,7.2,1.4,9-3.1c7.2-18,14-36.1,13.9-56c0-6.9,2.2-13.6,4-20.3
	c0.9-3.2,3.3-3.8,5.9-1.5c7.3,6.7,13.4,14.5,20,21.8c6.3,7.1,12,14.5,17.6,22.1c3.5,4.8,7.5,9.3,10.6,14.5c3.6,6.3,7.1,6.7,11.8,1.1
	c6.2-7.5,12.9-14.6,20-21.2c5.7-5.3,12.4-9.4,18.5-14.3c8.5-6.8,18.5-11.1,27.5-17c2.3-1.5,4.8-3,7.5-1.6c2.9,1.5,2.5,4.6,2.5,7.2
	c0,13.2,0.1,26.5,0,39.7c-0.1,13.5,3.7,26.4,6.3,39.5c1.2,6.1,4.4,7.3,10.2,5.3c18.7-6.7,37.3-13.3,56-20c2.3-0.8,4.8-1.8,6.8,0.1
	c2.1,2,0.2,4.1-0.6,6.2c-2.5,7.1-7.8,12.4-11.2,19c-8,15.4-16.8,30.4-26,45.1c-2.7,4.2-1.9,6.5,3.1,7.3c15.8,2.6,31.6,5.9,47.7,7
	c5.9,0.4,11.5,2.1,17.1,3.7c3.4,0.9,4.1,3.9,1.7,6.2c-6.1,6-11.4,12.9-18.4,17.8c-12.1,8.5-21.8,19.6-31.9,30.2
	c-3.1,3.2-2.7,4.7,1.5,6.5c15.8,6.6,31.5,13.3,47.3,20c0.3,0.1,0.6,0.2,0.8,0.4c7.3,3.6,7.5,6.7,1.1,11.6
	c-8.9,6.8-19.1,11.4-29.1,16.1c-12.9,6.1-26.2,11.2-40.1,14.9c-2.2,0.6-4.5,1.5-5,4c-0.5,2.3,1.7,3.2,3,4.6
	c9.6,10.3,22.7,14.9,34.2,22.3c3.1,2,7.4,3.7,7.2,7.9c-0.2,4.1-4.7,5.4-7.8,7.4c-9.8,6.5-21.2,9.1-32,13.1c-5.4,2-6.4,3.9-5,9.5
	c1.8,7.5,5.8,14.2,7.6,21.6c1.8,7.2,0,9.1-7.3,9.7c-6.8,0.5-13.4,1.6-19.9,3.7c-4.6,1.5-5.4,3.8-2.9,7.8c3.3,5.2,6.4,10.4,10.8,14.9
	c4.5,4.7,3.6,8-2.5,10.5c-5.1,2.2-10.4,4-15.9,4.9c-7.2,1.2-12.1,5.7-16.2,11.2c-8.2,11-18.5,19.1-31.5,23.7c-6.7,2.3-7,2.8-6.9,9.6
	c0,2,0,3.9,0.2,5.9c0.3,3.7,2.2,6.1,6,7c18.4,4.3,36.4,10.2,54.6,15.4c2.3,0.7,4.7,1.1,7.1,1.3c9.8,0.8,15,6.8,17.6,15.6
	c4.1,13.8,8.2,27.6,11.9,41.5c2.1,7.8,5.9,15.1,7.6,23.1c3.3,15.1,8.4,29.7,12.6,44.5c3.2,11.3,5.9,22.6,9,33.9
	c2,7.5,2.9,15.3,5.9,22.6c0.8,1.9,1.8,3.1,3.7,3.4c4.7,0.8,9.2-0.3,13.8-0.9c1.8-0.2,2.5-2.2,2.6-3.9c0.7-13.9,7.1-26.1,13.1-38
	c4.3-8.7,6.5-18.3,12.5-26.2c3.3-4.4,7.9-5.8,12.3-2.5c2,1.5,4.2,1.5,6.3,2.1c8.3,2.5,17.2,3.3,25.3,6.2c17.8,6.4,36.4,5.4,54.7,7
	c2.3,0.2,6.6,1.2,6.5-1.6c-0.1-3.5-4-1.2-6.3-1.3c-6.4-0.4-13-0.2-19.2-2c-10.2-2.8-20.6-4.1-31-5.7c-4.2-0.7-8.2-1.9-11.8-4.1
	c-1.8-1.1-3.7-2.2-5.7-2.7c-16.1-4.2-29.5-13.8-42.8-22.9c-11.4-7.8-19.6-19.3-27-31c-4.3-6.9-5.8-14.7-8-22.3
	c-0.5-1.9-0.6-4-2.1-5.4c-1-0.9-2.3-1.7-3.7-0.9c-1.1,0.6-0.5,1.9-0.4,2.9c0.5,4.4,2.8,8.2,4.3,12.3c0.9,2.4,2.2,4.9,0.3,7.2
	c-2,2.5-5.1,2.4-7.5,1.5c-7.5-2.7-16.2-3.6-20-12.2c-4.1-9.2-6.3-18.8-4.7-28.8c0.6-3.9,2.9-7.6,5.9-10.4c7.2-6.8,7.4-8.1,2.4-16.7
	c-4-6.8-8.1-13.7-11.9-20.7c-4.7-8.7-4-18.1-1.9-27.2c3-12.9,9.3-24.7,11.9-37.8c0.8-4.2-0.5-8.3-0.2-12.6
	c1.2-14.5,9-25.8,17.1-37.1c6.9-9.8,14.9-18.7,22.7-27.6c12.5-14,26-27.1,43.6-35.6c26.5-12.8,54.2-18.8,83.4-19.3
	c16.6-0.3,33.1,0.5,49.1,5.4c8.9,2.8,17.5,6.5,25.3,11.5c5.9,3.7,12.1,6.5,18.8,8.3c4.7,1.2,8.8,3.6,12.4,7
	c15.4,14.7,28,31.8,38.5,50.1c6.7,11.6,14.3,22.9,18.1,36c2.3,7.8,2.3,15.8,2.5,23.7c0.3,11.5,1.6,22.8,3.3,34
	c1.4,8.8-0.1,17.3-2.1,25.8c-1.8,7.7-3.1,15.6-4.2,23.5c-0.4,2.7,0.6,5.3,2.6,7.4c12.9,13.3,8.3,35.8-7.7,45.9
	c-6.7,4.2-14.6,6.6-19.8,13c-3.4,4.2-7.1,8.2-10.2,12.6c-8.4,11.9-19.8,20.7-30.7,30c-4.5,3.8-5.4,6.7-1.8,11.6
	c8.4,11.4,13.2,24.5,18.4,37.5c2.2,5.4,0.7,8.2-3.1,12.5c-8.5,9.7-20,15.6-29.8,23.5c-1.5,1.2-3,2.5-4.3,4
	c-3.9,4.4-8.4,4.4-13.5,2.4c-11.5-4.4-21.3-2.2-28.2,7c-2.7,3.6-4.4,8.1-6.7,12.4c-1.8-1.9-1.7-4-1.8-6.1c-0.4-6.7-2.9-9.4-9.5-9.4
	c-17.1-0.1-34.3-0.1-51.4,0c-7.7,0.1-11.2,3.7-11.2,11.6c-0.1,9.9,0,19.8-0.1,29.8c-0.1,6.6-1.8,8.6-8.3,9.4
	c-4.2,0.5-8.3,1.4-12,3.6c-6.1,3.7-12.8,3-19.3,2.1c-4.9-0.7-7.9-4.9-10.7-8.5c-6.9-8.7-13.2-17.9-21.1-25.6
	c-5.1-5-10.9-9.7-15.4-15c-6.9-8.1-15.1-7.4-23.7-7.4c-10.8,0-21.6,0-32.5,0c-9,0.1-12,2.9-12,11.9c-0.1,13.8,0,27.7,0,41.5
	c0,3.5,0.3,7.3-4,8.6c-4.4,1.3-7.5-1.4-9.2-4.8c-3-5.8-7-10.8-10.2-16.4c-5.8-10.4-15.4-16.9-24.6-23.9c-7.8-6-17.2-8.6-26-12.2
	c-8.2-3.3-17.2-3.9-25.9-5.5c-21.6-3.9-42.8-0.9-63.8,4c-4.1,1-7.6,3.5-11.8,4.4c-3.5,0.8-6.9,0.9-10-1.1
	c-11.4-7.5-23.1-14.2-33.9-22.7c-9.6-7.5-19-15.1-28.3-22.9c-7.2-6.1-14.2-12.4-21.2-18.7c-2.5-2.3-2.4-5.6-1.2-7.9
	c5.8-11.3,7.1-23.9,11-35.7c6-18.4,11.5-37,16.3-55.7c2.1-8.3,4.4-16.5,6.9-24.7c1.5-5.2,5.4-8.4,10.3-9.9
	c14.6-4.5,28.8-10.5,43.4-15.1c10-3.1,20.1-6,30.1-9.3c4.6-1.5,8.4-6.3,8.7-10.6c0.3-5.3-3-7.8-7.3-9.7
	c-10.9-4.7-21.7-9.5-31.2-16.9c-6.4-4.9-10.3-11.7-14.2-18.3c-9.8-16.8-17.2-34.5-22.2-53.5c-4.4-16.8-8.2-33.5-8.1-50.9
	c0-2.5-0.4-5.1-1-7.6c-3.3-13-3.2-26.2-1.9-39.4C250.5,394.2,251.3,390.9,249.1,388.1z M672.4,576.3c0.4-10.1-2.6-19.4-6.5-28.4
	c-1.5-3.5-3.7-6.9-6.7-9.5c-4-3.4-6.1-3-7.6,2c-2.2,7.4-7.4,12.7-13.8,15.2c-11.7,4.6-23.7,8.4-36.3,10.1
	c-10.1,1.3-20.3,1.9-30.5,1.8c-5.7,0-8.3,2.4-8.3,7.8c0.1,9.6,1.4,19,7.5,26.9c10.8,13.9,24,23.4,42.3,25.1
	c17.3,1.6,32.3-3.8,44.7-15C667.4,603.1,672.8,590.5,672.4,576.3z M698.5,573.6c0.2,3.4-0.2,7.1,0.7,10.3
	c3.8,13.5,11.7,24.2,23.5,31.8c3.6,2.3,6.9,5.5,11.2,6.6c14.9,3.7,29.4,3.4,43.6-3.2c18.9-8.8,29.9-23,30.4-44.4
	c0.2-7.2-0.9-8-8-8.1c-10.4-0.1-20.7,0.7-31.1-0.6c-10.3-1.4-20.3-4.5-29.8-8.4c-7.6-3.1-15.6-6.5-19.9-14.9
	c-2.8-5.3-4.9-5.3-8.6-0.6C703.2,551.2,697.5,561.2,698.5,573.6z M355,359.2c-0.9-6-1-14.5-5.6-21c-6.5-9.2-16.3-14.4-27.2-17
	c-7.6-1.8-14.8-0.4-22.2,3c-12.3,5.7-20.5,14.6-25.1,27.2c-2.3,6.4-1.5,12.6-0.3,19.1c1.2,6.8,4.4,9.1,11.1,7.9
	c8.3-1.5,16.5-2.9,25-3c11.9-0.1,23.7,0.8,35.2,3.9c4.2,1.1,6.4-0.2,7.3-4.4C354.1,370.2,355.2,365.7,355,359.2z M459.5,369.2
	c1.2-11.5-7.8-19.6-16.4-23.1c-7.6-3.2-15.7-5.8-24.1-6.6c-8.7-0.8-17.3-1.5-26,0.1c-8.3,1.5-12.3,5.6-13.9,13.6
	c-0.8,4.3,0.3,8.4,0.3,12.5c0,5,1.8,6.8,6.8,7c7.5,0.4,15,0.8,22.5,0.7c7.9-0.1,15.6,1.2,23.2,2.6c6.1,1.1,12.4,1.7,17.8,5.5
	c3.5,2.5,5.7,1.1,7.6-3.1C458.7,375.3,460,372.3,459.5,369.2z M427,622.3c-0.6,1.9,0.1,2.8,0.6,3.7c8.4,14.6,17.2,28.8,24.7,44
	c9.1,18.6,17.8,37.4,25.3,56.7c3,7.7,2.2,14.9-4.4,20.5c-9,7.8-16.9,16.7-25.5,24.9c-3.1,2.9-3,5.8-0.8,9.2c2.4,3.7,5.7,6.3,9.2,8.9
	c6.6,5.1,13,10.6,18.9,16.6c1.8,1.8,4.4,3.8,6.5,1c2-2.7-0.9-4.1-2.7-5.6c-3.2-2.5-7.5-3.4-10.1-6.6c-3.9-4.6-9.1-8.2-11.6-14
	c-0.4-0.9-1.3-1.7-2.1-2.3c-5.4-4.3-5.5-4.7-0.4-9.5c7.8-7.3,15.8-14.3,23.4-21.8c5.4-5.3,7.4-11.7,4.6-19.4
	c-2.1-5.8-5.3-11.1-7.2-17c-5.8-17.3-14.7-33.2-22.7-49.5c-3.8-7.7-8.2-15-12.7-22.3C436.3,633.8,432.9,627.4,427,622.3z
	 M707.4,872.1c0.3,2.6,2.5,4.3,5.3,3.6c5.1-1.3,7.5-5.2,8.7-9.9c1.1-4.1,0.2-7.7-3.1-10.5c-4.1-3.4-8-6.8-10-12.1
	C706.3,852.8,706.2,862.5,707.4,872.1z"/>
</svg>
